# xmcd
#
# Track frame offsets:
#	210
#	17141
#	32034
#	50379
#	67647
#	78501
#	104745
#	128454
#	138240
#	155625
#
# Disc length: 2349 seconds
#
# Revision: 0
# Processed by: cddbd v1.4PL0 Copyright (c) Steve Scherf et al.
# Submitted via: EasyCDDAExtractor 4.6.0.1
#
DISCID=7a092b0a
DTITLE=The Legendary Tiger Man - Naked Blues
DYEAR=2002
DGENRE=Blues
TTITLE0=Gonna Shoot My Woman (Tradicional Lyrics)
TTITLE1=Naked Blues
TTITLE2=Break My Bone
TTITLE3=I'll Make You Mine
TTITLE4=Sauselito 1PM
TTITLE5=Mannish Boy (Elias McDaniel A.K.A. Bo Diddley)
TTITLE6=Lust
TTITLE7=I'm Just A Man
TTITLE8=Sometimes I Miss You
TTITLE9=She Said (Hasyl Adkins)
EXTD=
EXTT0=
EXTT1=
EXTT2=
EXTT3=
EXTT4=
EXTT5=
EXTT6=
EXTT7=
EXTT8=
EXTT9=
PLAYORDER=
